<svg width="261" height="66" viewBox="0 0 261 66" fill="none" xmlns="http://www.w3.org/2000/svg" xmlns:xlink="http://www.w3.org/1999/xlink">
<symbol id="logo-symbol-wordmark" viewBox="0 0 180 70" fill="#2d87c9"><path d="M0 21.607h7.203v50.416H0z"/><path d="M0 64.82h57.62v7.202H0z"/><path d="M50.417 14.405h7.202V64.82h-7.202z"/><path d="M43.215 0h7.203v14.405h-7.203z"/><path d="M14.405 0h36.013v7.202H14.405zm21.607 42.045c0 1.17-5.74.42-7.202 1.17-4.313 2.217-5.017 7.2-5.017 7.2-2.186 0-2.186 0-2.186-8.37V29.98a1.17 1.17 0 0 1 1.17-1.17h12.065a1.17 1.17 0 0 1 1.17 1.17v12.066zm94.452-11.638h19.32v3.47h-19.32zM72.044 17.14h4.123v37.608h-4.123z"/><path d="M72.044 14.67h8.247v3.762h-8.247zm0 40.08h8.247v3.76h-8.247zm82.286-37.6h4.124v37.608h-4.124z"/><path d="M150.208 14.67h8.247v3.762h-8.247zm0 40.08h8.247v3.76h-8.247zM81.93 14.67h3.76v3.762h-3.76zm37.626 0h3.76v3.762h-3.76zM81.93 25.93h3.243v32.83H81.93zm3.77-8.052v3.288h27.12l-.113 33.037c0 .667-.222.8-.9.857-.417.037-1.72.094-3.244.093v3.275h7.5v-40.55H85.7z"/><path d="M90.082 31.087H113.8v2.79H90.082z"/><path d="M103.19 25.773h2.52V51.35h-2.52z"/><path d="M97.653 50.806h5.54v2.907h-5.54zm18.4-26.623h14.4v3.542h-14.4z"/><path d="M127.3 26.665h3.163v7.2H127.3zm-7.32 11.787h2.913v19.984h-2.913z"/><path d="M116.053 39.597l11.345-7.935 3.066 2.214-14.4 9.75zm-25.97 4.968l13.1-8.47 2.52 2.436-15.628 10.06zm46.626-26.687h3.493v40.56h-3.493z"/><path d="M122.372 55.255h26.146v3.182h-26.146zM7.203 0h7.202v14.405H7.203z"/></symbol><use xlink:href="#logo-symbol-wordmark"/>
</svg>
